<svg width="404" height="268" viewBox="0 0 404 268" fill="none" xmlns="http://www.w3.org/2000/svg">
<path d="M201.688 267.139C313.076 267.139 403.375 256.185 403.375 242.673C403.375 229.161 313.076 218.207 201.688 218.207C90.2986 218.207 0 229.161 0 242.673C0 256.185 90.2986 267.139 201.688 267.139Z" fill="#EEF1FD"/>
<path d="M11.972 30.5343H128.236V170.723H11.972V30.5343Z" stroke="#E4E8FD" stroke-width="2"/>
<path d="M141.155 30.5343H257.419V170.723H141.155V30.5343Z" stroke="#E4E8FD" stroke-width="2"/>
<path d="M270.337 30.5343H386.602V170.723H270.337V30.5343Z" stroke="#E4E8FD" stroke-width="2"/>
<path d="M11.972 130.67H31.3496V97.2912H70.1042V50.5614H95.9406V77.264H108.859V123.994H128.236" stroke="#E4E8FD" stroke-width="2"/>
<path d="M141.155 37.2102H192.827V90.6159H212.205V117.318H225.123V57.2368H250.96V103.967H257.419" stroke="#E4E8FD" stroke-width="2"/>
<path d="M270.337 43.8856H289.715V90.6153H302.633V57.2368H341.388V123.994H354.306V70.5887H386.602" stroke="#E4E8FD" stroke-width="2"/>
<path d="M11.703 16.7518H128.236V24.6274H11.703V16.7518Z" stroke="#E4E8FD" stroke-width="2"/>
<path d="M32.39 1H38.8642V16.7518H32.39V1Z" stroke="#E4E8FD" stroke-width="2"/>
<path d="M97.1307 1H103.605V16.7518H97.1307V1Z" stroke="#E4E8FD" stroke-width="2"/>
<path d="M140.903 16.7518H257.436V24.6274H140.903V16.7518Z" stroke="#E4E8FD" stroke-width="2"/>
<path d="M161.589 1H168.064V16.7518H161.589V1Z" stroke="#E4E8FD" stroke-width="2"/>
<path d="M226.33 1H232.804V16.7518H226.33V1Z" stroke="#E4E8FD" stroke-width="2"/>
<path d="M269.604 16.7518H386.137V24.6274H269.604V16.7518Z" stroke="#E4E8FD" stroke-width="2"/>
<path d="M290.291 1H296.765V16.7518H290.291V1Z" stroke="#E4E8FD" stroke-width="2"/>
<path d="M355.031 1H361.505V16.7518H355.031V1Z" stroke="#E4E8FD" stroke-width="2"/>
<path d="M241.496 124.122C239.319 124.099 237.835 126.311 238.687 128.308L255.936 168.69L263.074 168.342L244.225 125.912C243.746 124.834 242.679 124.134 241.496 124.122Z" fill="#B0BEF7"/>
<path d="M255.936 168.69H295.909" stroke="#B0BEF7" stroke-width="6.4581" stroke-miterlimit="10"/>
<path d="M155.633 114.954C162.877 114.954 168.942 120.424 169.663 127.606L174.773 178.532H136.492L141.602 127.606C142.323 120.424 148.389 114.954 155.633 114.954Z" fill="#A2A7D0"/>
<path d="M130.48 232.024L137.48 192.011" stroke="#A2A7D0" stroke-width="6.4581" stroke-linecap="round" stroke-linejoin="round"/>
<path d="M180.786 232.024L173.786 192.011" stroke="#A2A7D0" stroke-width="6.4581" stroke-linecap="round" stroke-linejoin="round"/>
<path d="M133.302 178.532H177.964C183.249 178.532 187.534 182.802 187.534 188.068C187.534 193.335 183.249 197.605 177.964 197.605H133.302C128.017 197.605 123.732 193.335 123.732 188.068C123.732 182.802 128.017 178.532 133.302 178.532Z" fill="#C9CCE7"/>
<path d="M135.917 184.501H175.348" stroke="#F2F3FF" stroke-width="4.3054" stroke-miterlimit="10" stroke-linecap="round" stroke-linejoin="round"/>
<path d="M242.93 114.954C250.174 114.954 256.24 120.424 256.96 127.606L262.071 178.532H223.789L228.9 127.606C229.621 120.424 235.686 114.954 242.93 114.954Z" fill="#A2A7D0"/>
<path d="M217.777 232.024L224.777 192.011" stroke="#A2A7D0" stroke-width="6.4581" stroke-linecap="round" stroke-linejoin="round"/>
<path d="M268.083 232.024L261.083 192.011" stroke="#A2A7D0" stroke-width="6.4581" stroke-linecap="round" stroke-linejoin="round"/>
<path d="M220.599 178.532H265.261C270.546 178.532 274.831 182.802 274.831 188.068C274.831 193.335 270.546 197.605 265.261 197.605H220.599C215.314 197.605 211.029 193.335 211.029 188.068C211.029 182.802 215.314 178.532 220.599 178.532Z" fill="#C9CCE7"/>
<path d="M223.214 184.501H262.645" stroke="#F2F3FF" stroke-width="4.3054" stroke-miterlimit="10" stroke-linecap="round" stroke-linejoin="round"/>
<path d="M306.34 170.54H92.2234V175.745H306.34V170.54Z" fill="#5F8ED2"/>
<path d="M148.242 260.309C148.103 260.309 147.961 260.293 147.82 260.261C146.789 260.03 146.141 259.01 146.372 257.982L165.513 173.071C165.745 172.042 166.768 171.397 167.8 171.628C168.832 171.859 169.48 172.879 169.248 173.907L150.108 258.818C149.908 259.706 149.117 260.309 148.242 260.309Z" fill="#5F8ED2"/>
<path d="M250.321 260.309C249.446 260.309 248.656 259.706 248.456 258.818L229.315 173.907C229.084 172.879 229.731 171.859 230.763 171.628C231.793 171.398 232.819 172.042 233.05 173.071L252.191 257.983C252.423 259.01 251.775 260.03 250.743 260.261C250.602 260.293 250.46 260.309 250.321 260.309Z" fill="#5F8ED2"/>
<path d="M109.708 162.412C109.708 162.412 117.136 159.986 120.594 161.591C124.052 163.197 124.689 164.75 125.049 166.016C125.409 167.283 114.704 167.488 110.316 166.135C105.928 164.782 109.708 162.412 109.708 162.412Z" fill="#D38C8F"/>
<path d="M62.886 136.226C60.1528 141.59 72.119 165.279 81.6886 167.801C91.2577 170.322 110.588 169.834 112.119 169.293C113.649 168.752 114.989 161.635 113.45 160.651C111.911 159.668 88.9263 157.953 88.9263 157.953C88.9263 157.953 76.1107 140.417 73.2079 136.724C70.3045 133.03 65.3442 131.402 62.886 136.226Z" fill="#EA8F75"/>
<path d="M44.2618 231.432L64.0223 191.419L86.2132 230.063" stroke="#9BA2E0" stroke-width="6.4581" stroke-linecap="round" stroke-linejoin="round"/>
<path d="M26.3453 240.969L46.1053 200.955L68.2961 239.6" stroke="#5F8ED2" stroke-width="6.4581" stroke-linecap="round" stroke-linejoin="round"/>
<path d="M38.9672 189.096H83.6287C88.9138 189.096 93.199 193.366 93.199 198.632C93.199 203.899 88.9138 208.169 83.6287 208.169H38.9672C33.6815 208.169 29.397 203.899 29.397 198.632C29.3964 193.366 33.6815 189.096 38.9672 189.096Z" fill="#4F80C8"/>
<path d="M27.2608 123.898C33.2614 123.898 38.5495 127.827 40.262 133.558L54.5145 181.257C57.1043 189.924 60.4327 188.914 51.3574 188.914L38.2899 195.973C30.904 199.964 21.5282 195.779 20.0243 187.542C19.981 187.306 19.9443 187.067 19.9129 186.826L13.8044 139.127C12.77 131.048 19.0871 123.898 27.2608 123.898Z" fill="#5F8ED2"/>
<path d="M35.8171 199.228H58.8254" stroke="#8490F9" stroke-width="4.3054" stroke-miterlimit="10" stroke-linecap="round" stroke-linejoin="round"/>
<path d="M26.4664 133.806C23.5405 135.363 21.9109 138.584 22.3958 141.854L30.2542 186.682" stroke="#84B0F2" stroke-width="4.3054" stroke-miterlimit="10" stroke-linecap="round" stroke-linejoin="round"/>
<path d="M89.2293 239.928C88.63 241.562 88.2323 247.907 95.1042 252.234C101.977 256.561 105.174 254.056 105.174 254.056C105.174 254.056 99.9815 246.435 96.6798 242.905C93.3787 239.374 89.8292 238.294 89.2293 239.928Z" fill="#08153F"/>
<path d="M102.934 225.265C102.934 225.265 115.172 233.907 113.76 234.743C112.347 235.58 109.593 237.168 105.317 235.564C101.041 233.959 97.7918 229.644 96.6579 228.325C95.5233 227.007 100.024 223.486 100.024 223.486L102.934 225.265Z" fill="#08153F"/>
<path d="M65.5654 183.247C65.5654 183.247 89.3751 182.853 97.5168 188.085C105.659 193.317 104.549 195.489 106.152 211.186C107.756 226.883 107.386 225.994 107.386 225.994C107.386 225.994 102.945 228.561 98.8736 225.895C94.8025 223.23 91.2251 197.956 91.2251 197.956L76.1747 192.921L61.4937 190.454L56.4362 187.393L65.5654 183.247Z" fill="#0B1E5D"/>
<path d="M99.8611 244.224C99.8611 244.224 99.4912 205.377 98.5042 199.231C97.5173 193.084 91.6827 189.018 79.2227 186.681C66.7627 184.346 47.6773 186.077 45.9512 189.396C44.2239 192.715 46.6127 196.401 58.8255 199.228C71.0383 202.055 84.3169 203.41 84.3169 203.41C84.3169 203.41 85.921 227.628 86.9079 234.389C87.8949 241.15 88.3881 241.027 92.7058 242.872C97.0241 244.715 99.8611 244.224 99.8611 244.224Z" fill="#2C5898"/>
<path d="M45.541 188.923C45.541 188.923 49.4177 189.732 57.6216 187.844C65.8261 185.958 68.5303 182.275 68.5303 182.275C68.5303 182.275 67.8996 171.315 70.6038 162.69C73.3086 154.066 71.6269 150.979 70.6927 137.535C70.0934 128.914 58.9067 128.963 53.7016 136.613C45.806 148.217 43.4675 166.195 45.541 188.923Z" fill="#D65A38"/>
<path d="M156.206 124.122C158.383 124.099 159.868 126.311 159.015 128.308L141.768 168.69L134.629 168.342L153.478 125.912C153.957 124.834 155.024 124.134 156.206 124.122Z" fill="#0B1E5D"/>
<path d="M141.767 166.782H101.794V170.597H141.767V166.782Z" fill="#0B1E5D"/>
<path d="M105.292 165.237C105.292 165.237 112.72 162.811 116.178 164.416C119.636 166.022 120.273 167.574 120.633 168.841C120.993 170.107 110.288 170.313 105.9 168.96C101.511 167.607 105.292 165.237 105.292 165.237Z" fill="#E5979A"/>
<path d="M56.5055 137.037C53.7723 142.401 65.7385 166.091 75.3081 168.613C84.8772 171.135 104.208 170.647 105.738 170.106C107.269 169.565 108.608 162.447 107.069 161.463C105.531 160.48 82.5458 158.765 82.5458 158.765C82.5458 158.765 69.7308 141.229 66.8274 137.536C63.9246 133.842 58.9637 132.213 56.5055 137.037Z" fill="#E5785A"/>
<path d="M62.0681 125.256L61.3621 129.272C60.9561 131.581 62.5091 133.763 64.7338 134.012L64.8103 134.02C66.8363 134.246 68.6787 132.774 69.0088 130.664L69.6384 126.64C70.0219 124.19 68.2234 121.962 65.8571 121.955C63.9999 121.951 62.4048 123.34 62.0681 125.256Z" fill="#DD8487"/>
<path d="M59.9484 116.842C60.8037 110.456 65.1629 105.768 69.6846 106.369C74.2062 106.97 77.1777 112.635 76.3218 119.021C75.4664 125.407 71.1072 130.096 66.5856 129.494C62.0651 128.892 59.093 123.228 59.9484 116.842Z" fill="#E5979A"/>
<path d="M61.8974 126.403C59.1244 123.847 55.256 122.218 54.1398 115.741C53.6923 113.144 53.3799 108.094 57.8256 106.826C62.2714 105.558 68.0781 108.622 67.6448 111.059C67.2115 113.496 65.3799 117.008 65.2607 118.314C65.1422 119.62 63.6863 119.584 62.3858 116.79C61.0853 113.995 59.336 117.652 60.2803 120.408C61.224 123.165 62.355 123.051 62.355 123.051C62.355 123.051 62.86 124.991 61.8974 126.403Z" fill="#202C72"/>
<path d="M57.9915 110.403C56.6353 108.689 56.0283 103.615 63.3691 102.269C70.4663 100.968 73.1184 105.874 76.1871 105.382C79.2565 104.89 81.2411 108.299 76.2381 110.693C64.6667 116.466 59.3478 112.117 57.9915 110.403Z" fill="#263689"/>
<path d="M63.8546 117.086C68.1664 118.624 72.6827 120.187 77.2233 119.59C76.4705 122.003 75.7105 124.587 74.081 126.522C72.4515 128.458 70.0502 129.88 67.5155 129.824C66.6317 129.804 65.9625 129.247 65.3074 128.655C62.966 126.54 61.1747 123.825 60.1533 120.845C60.7704 121.843 61.656 122.726 62.6412 123.366C63.1462 123.694 63.7544 123.974 64.3365 123.817C65.1148 123.606 65.5019 122.665 65.3643 121.873C65.2268 121.081 64.707 120.415 64.1889 119.799C63.6708 119.183 63.1219 118.552 62.9055 117.777C63.1628 117.441 63.4539 117.226 63.8546 117.086Z" fill="white"/>
<path d="M282.751 146.039C279.473 143.729 274.722 144.62 271.38 142.403C271.189 142.277 270.983 142.05 271.097 141.853C271.197 141.681 271.449 141.702 271.643 141.746C273.115 142.078 276.857 142.705 276.865 142.517C276.876 142.271 269.517 139.932 269.853 138.936C270.08 138.262 275.332 140.255 277.023 140.858C274.92 139.746 270.246 137.318 270.22 137.053C270.079 135.607 275.309 138.354 277.563 139.461C276.048 138.417 272.48 136.485 272.686 135.526C272.867 134.68 278.313 138.226 280.654 139.844C279.875 138.249 279.372 138.121 278.916 136.984C278.632 136.273 278.623 135.838 278.841 135.598C279.039 135.38 281.584 138.242 282.611 139.547C283.913 141.201 285.464 142.66 287.198 143.859C286.613 144.672 286 145.511 285.13 146.009C284.258 146.509 283.571 146.618 282.751 146.039Z" fill="#D38C8F"/>
<path d="M340.85 140.094C340.846 146.11 319.401 161.817 309.724 159.741C300.048 157.665 283.041 148.496 281.923 147.322C280.805 146.149 282.85 139.2 284.669 139.018C286.488 138.837 307.754 147.694 307.754 147.694C307.754 147.694 327.156 137.855 331.424 135.875C335.691 133.894 340.854 134.683 340.85 140.094Z" fill="#47A1B9"/>
<path d="M353.299 231.432L333.539 191.419L311.348 230.063" stroke="#9BA2E0" stroke-width="6.4581" stroke-linecap="round" stroke-linejoin="round"/>
<path d="M371.215 240.969L351.455 200.955L329.264 239.6" stroke="#5F8ED2" stroke-width="6.4581" stroke-linecap="round" stroke-linejoin="round"/>
<path d="M358.594 189.096H313.932C308.646 189.096 304.362 193.366 304.362 198.632C304.362 203.899 308.647 208.169 313.932 208.169H358.594C363.879 208.169 368.164 203.899 368.164 198.632C368.164 193.366 363.879 189.096 358.594 189.096Z" fill="#4F80C8"/>
<path d="M370.3 123.898C364.299 123.898 359.011 127.827 357.298 133.558L343.046 181.257C340.456 189.924 337.128 188.914 346.203 188.914L359.271 195.973C366.657 199.964 376.032 195.779 377.536 187.542C377.579 187.306 377.616 187.067 377.648 186.826L383.756 139.127C384.79 131.048 378.473 123.898 370.3 123.898Z" fill="#5F8ED2"/>
<path d="M361.743 199.228H338.735" stroke="#8490F9" stroke-width="4.3054" stroke-miterlimit="10" stroke-linecap="round" stroke-linejoin="round"/>
<path d="M371.094 133.806C374.02 135.363 375.649 138.584 375.165 141.854L367.306 186.682" stroke="#84B0F2" stroke-width="4.3054" stroke-miterlimit="10" stroke-linecap="round" stroke-linejoin="round"/>
<path d="M308.331 239.928C308.93 241.562 309.328 247.907 302.456 252.234C299.511 254.088 297.24 254.688 295.608 254.768C294.033 254.845 293.082 253.04 293.992 251.756C295.79 249.221 298.735 245.198 300.881 242.905C304.182 239.374 307.731 238.294 308.331 239.928Z" fill="#824312"/>
<path d="M294.627 225.265C294.627 225.265 287.134 229.49 284.615 232.823C283.913 233.752 284.293 235.103 285.366 235.561C286.933 236.231 289.204 236.704 292.245 235.563C296.52 233.959 299.77 229.643 300.904 228.325C301.675 227.429 299.843 225.516 298.591 224.382C297.988 223.836 297.098 223.754 296.404 224.179L294.627 225.265Z" fill="#824312"/>
<path d="M331.995 183.247C331.995 183.247 308.185 182.853 300.044 188.085C291.902 193.317 293.012 195.489 291.408 211.186C289.804 226.883 290.174 225.994 290.174 225.994C290.174 225.994 294.615 228.561 298.686 225.895C302.757 223.23 306.335 197.956 306.335 197.956L321.385 192.921L336.066 190.454L341.124 187.393L331.995 183.247Z" fill="#5D6078"/>
<path d="M297.699 244.224C297.699 244.224 298.069 205.377 299.056 199.231C300.043 193.084 305.878 189.018 318.338 186.681C330.797 184.346 349.883 186.077 351.609 189.396C353.336 192.715 350.947 196.401 338.735 199.228C326.522 202.056 313.243 203.41 313.243 203.41C313.243 203.41 311.639 227.628 310.652 234.389C309.665 241.15 309.172 241.027 304.854 242.872C300.537 244.715 297.699 244.224 297.699 244.224Z" fill="#A3AFD9"/>
<path d="M352.019 188.923C352.019 188.923 348.143 189.732 339.939 187.844C331.734 185.958 329.03 182.275 329.03 182.275C329.03 182.275 329.661 171.315 326.957 162.69C324.252 154.066 325.933 150.979 326.868 137.535C327.467 128.914 338.654 128.963 343.859 136.613C351.754 148.217 354.093 166.195 352.019 188.923Z" fill="#6DC3D6"/>
<path d="M241.354 124.122C239.177 124.099 237.693 126.311 238.545 128.308L255.794 168.69L262.932 168.342L244.083 125.912C243.604 124.834 242.537 124.134 241.354 124.122Z" fill="#0B1E5D"/>
<path d="M295.767 166.782H255.794V170.597H295.767V166.782Z" fill="#0B1E5D"/>
<path d="M292.268 165.237C292.268 165.237 284.84 162.811 281.382 164.416C277.925 166.022 277.287 167.575 276.928 168.841C276.568 170.107 287.273 170.313 291.661 168.96C296.049 167.607 292.268 165.237 292.268 165.237Z" fill="#E5979A"/>
<path d="M341.055 137.037C343.788 142.401 331.822 166.091 322.252 168.613C312.683 171.135 293.352 170.647 291.822 170.106C290.291 169.565 288.952 162.447 290.491 161.463C292.029 160.48 315.014 158.765 315.014 158.765C315.014 158.765 327.83 141.229 330.733 137.536C333.636 133.842 338.597 132.213 341.055 137.037Z" fill="#93D6E5"/>
<path d="M335.492 125.256L336.198 129.272C336.604 131.581 335.051 133.763 332.827 134.012L332.75 134.02C330.724 134.246 328.882 132.774 328.552 130.664L327.922 126.64C327.539 124.19 329.337 121.962 331.703 121.955C333.561 121.951 335.156 123.34 335.492 125.256Z" fill="#DD8487"/>
<path d="M337.612 116.842C336.757 110.456 332.398 105.768 327.876 106.369C323.354 106.97 320.383 112.635 321.239 119.021C322.094 125.407 326.453 130.096 330.975 129.494C335.496 128.892 338.467 123.228 337.612 116.842Z" fill="#E5979A"/>
<path d="M335.664 126.403C338.437 123.847 342.305 122.218 343.421 115.741C343.869 113.144 344.181 108.094 339.735 106.826C335.29 105.558 329.483 108.622 329.916 111.059C330.35 113.496 332.181 117.008 332.3 118.314C332.419 119.62 333.875 119.584 335.175 116.79C336.476 113.995 338.225 117.652 337.281 120.408C336.337 123.165 335.206 123.051 335.206 123.051C335.206 123.051 334.701 124.991 335.664 126.403Z" fill="#824312"/>
<path d="M333.325 117.317C329.013 118.855 324.497 120.419 319.956 119.821C320.709 122.234 321.469 124.818 323.099 126.754C324.728 128.69 327.129 130.111 329.664 130.055C330.548 130.036 331.217 129.479 331.872 128.887C334.214 126.772 336.006 124.057 337.026 121.076C336.409 122.075 335.524 122.957 334.539 123.597C334.033 123.926 333.425 124.205 332.843 124.048C332.065 123.838 331.678 122.897 331.815 122.105C331.953 121.313 332.473 120.646 332.991 120.03C333.509 119.414 334.058 118.783 334.274 118.009C334.016 117.671 333.725 117.457 333.325 117.317Z" fill="white"/>
<path d="M333.657 112.211C333.695 113.627 332.648 114.999 331.268 115.34C329.888 115.681 328.319 114.955 327.689 113.685C327.043 114.141 326.781 114.283 326.019 114.498C325.367 114.682 324.662 114.769 324.016 114.564C323.37 114.358 322.803 113.806 322.743 113.133C322.684 112.461 323.272 111.755 323.946 111.826C323.318 112.019 322.38 112.184 321.723 112.207C321.066 112.23 320.377 112.066 319.891 111.624C319.315 111.098 319.116 110.201 319.418 109.483C319.719 108.765 320.5 108.276 321.28 108.316C320.318 107.353 319.623 105.891 319.907 104.561C320.085 103.726 320.564 102.92 321.322 102.521C322.079 102.122 323.125 102.232 323.663 102.897C323.362 101.737 323.676 100.842 324.373 99.8654C324.777 99.3007 325.357 98.8258 326.041 98.7059C326.865 98.5618 327.714 98.9605 328.286 99.5677C328.859 100.175 329.194 100.965 329.45 101.757C329.935 101.011 329.858 100.615 330.668 100.245C331.479 99.8737 332.648 100.138 332.912 100.987C333.671 99.7118 335.395 99.4419 336.698 100.157C338.001 100.873 338.558 102.682 337.881 104.002C338.999 103.5 340.064 103.447 341.213 103.871C342.363 104.296 343.315 105.282 343.587 106.473C343.86 107.664 343.387 109.019 342.37 109.7C343.019 110.423 342.976 111.709 342.524 112.569C342.073 113.43 341.059 113.96 340.092 113.842C340.019 114.896 339.026 115.968 337.965 115.991C336.905 116.012 335.903 115.138 335.786 114.087C335.194 114.183 334.522 114.051 334.182 113.558C333.842 113.066 333.354 112.728 333.657 112.211Z" fill="#3E4B8C"/>
</svg>
